<svg height="640.000000pt" preserveAspectRatio="xMidYMid meet"
     version="1.0" viewBox="0 0 600.000000 640.000000" width="600.000000pt"
     xmlns="http://www.w3.org/2000/svg">
  <metadata>
    Created by potrace 1.15, written by Peter Selinger 2001-2017
  </metadata>
  <g fill="#000000"
     stroke="none" transform="translate(-150.000000,640.000000) scale(0.100000,-0.100000)">
    <path d="M4370 4716 c-313 -70 -512 -329 -497 -646 8 -170 63 -289 208 -444
47 -51 105 -121 129 -156 47 -70 145 -268 136 -277 -10 -10 -109 68 -166 130
-254 279 -699 287 -960 17 -255 -263 -240 -685 32 -925 73 -64 214 -132 311
-150 98 -19 155 -19 249 -1 141 27 240 81 363 197 85 80 251 196 263 185 10
-11 -27 -247 -58 -363 -53 -202 -125 -346 -227 -453 -81 -86 -145 -128 -242
-156 l-76 -23 700 0 c681 1 698 1 635 18 -259 69 -430 313 -519 741 -11 52
-23 126 -27 164 l-7 70 39 -24 c75 -45 129 -83 181 -127 28 -23 54 -43 58 -43
4 0 29 -20 55 -44 61 -54 173 -110 265 -132 94 -22 275 -15 358 15 107 38 180
83 258 161 128 127 178 238 186 415 5 93 2 124 -16 195 -12 47 -24 94 -26 104
-9 42 -74 132 -142 196 -163 156 -412 217 -630 154 -94 -27 -201 -89 -303
-175 -52 -44 -117 -96 -143 -115 -45 -33 -48 -34 -42 -12 14 48 104 225 141
280 22 31 78 99 125 151 147 162 193 269 193 452 0 155 -33 256 -127 381 -147
195 -430 295 -677 240z"/>
  </g>
</svg>
