<svg height="640.000000pt" preserveAspectRatio="xMidYMid meet"
     version="1.0" viewBox="0 0 600.000000 640.000000" width="600.000000pt"
     xmlns="http://www.w3.org/2000/svg">
  <metadata>
    Created by potrace 1.15, written by Peter Selinger 2001-2017
  </metadata>
  <g fill="#FF0000"
     stroke="none" transform="translate(160.000000,640.000000) scale(0.100000,-0.100000)">
    <path d="M565 4374 c-16 -3 -58 -14 -93 -25 -216 -71 -378 -244 -444 -474 -18
-65 -22 -103 -21 -205 1 -197 52 -363 174 -570 122 -206 227 -337 584 -730
312 -343 444 -510 519 -657 14 -29 28 -53 31 -53 2 0 20 30 40 68 81 153 190
288 543 675 133 144 271 298 307 342 208 250 347 492 400 699 24 96 53 373 34
331 -6 -14 -7 -4 -4 30 4 38 3 46 -5 35 -9 -12 -10 -7 -5 19 5 22 4 31 -3 27
-6 -3 -8 1 -6 12 3 9 -13 53 -35 97 -122 242 -338 377 -600 377 -117 -1 -172
-13 -276 -63 -201 -96 -344 -292 -377 -519 -3 -18 -8 -7 -17 35 -56 257 -229
453 -465 527 -60 19 -220 31 -281 22z"/>
  </g>
</svg>
