<svg height="640.000000pt" preserveAspectRatio="xMidYMid meet"
     version="1.0" viewBox="0 0 600.000000 640.000000" width="600.000000pt"
     xmlns="http://www.w3.org/2000/svg">
  <metadata>
    Created by potrace 1.15, written by Peter Selinger 2001-2017
  </metadata>
  <g fill="#000000"
     stroke="none" transform="translate(-850.000000,640.000000) scale(0.100000,-0.100000)">
    <path d="M11465 4700 c-87 -139 -196 -255 -570 -600 -393 -364 -533 -525 -630
-725 -63 -130 -79 -198 -79 -335 0 -96 4 -125 24 -175 115 -298 460 -464 797
-384 91 21 228 95 298 160 36 34 65 57 65 53 -1 -26 -32 -194 -55 -298 -62
-278 -177 -516 -302 -626 -46 -40 -143 -92 -203 -108 -23 -7 206 -10 675 -10
689 0 708 0 655 17 -105 34 -171 81 -254 184 -122 153 -235 480 -281 812 l-7
50 54 -52 c72 -71 94 -87 174 -127 108 -54 181 -70 319 -70 138 0 208 16 325
72 98 48 223 169 269 259 127 254 48 556 -233 891 -86 102 -244 258 -516 509
-273 252 -347 332 -483 528 -13 18 -15 17 -42 -25z"/>
  </g>
</svg>
